<?xml version="1.0" encoding="utf-8"?>
<!-- Svg Vector Icons : http://www.onlinewebfonts.com/icon -->
<!DOCTYPE svg PUBLIC "-//W3C//DTD SVG 1.1//EN" "http://www.w3.org/Graphics/SVG/1.1/DTD/svg11.dtd">
<svg version="1.1" xmlns="http://www.w3.org/2000/svg" xmlns:xlink="http://www.w3.org/1999/xlink" x="0px" y="0px" viewBox="0 0 1000 1000" enable-background="new 0 0 1000 1000" xml:space="preserve">
<metadata> Svg Vector Icons : http://www.onlinewebfonts.com/icon </metadata>
<g><path d="M500,990c-66.1,0-130.3-13-190.7-38.5c-58.4-24.7-110.8-60-155.7-105c-45-45-80.3-97.4-105-155.7C23,630.3,10,566.1,10,500s13-130.3,38.5-190.7c24.7-58.4,60-110.8,105-155.7c45-45,97.4-80.3,155.7-105C369.7,23,433.9,10,500,10c66.1,0,130.3,13,190.7,38.5c58.4,24.7,110.8,60,155.7,105c45,45,80.3,97.4,105,155.7C977,369.7,990,433.9,990,500c0,66.1-13,130.3-38.5,190.7c-24.7,58.4-60,110.8-105,155.7c-45,45-97.4,80.3-155.7,105C630.3,977,566.1,990,500,990z M500,48.8C251.2,48.8,48.8,251.2,48.8,500S251.2,951.2,500,951.2S951.2,748.8,951.2,500C951.2,251.2,748.8,48.8,500,48.8z"/><path d="M362.4,952.4V803.8c0,0-42.1-102.7-82.3-126.4h-67.9c0,0-96.2-32.4-104.7-60c-8.4-27.6,0-48.5,0-48.5s38.3-186.3,162.5-242.5c0,0,49.8-4.2,29.8,46c0,0-1.3,8.5-64.9,8.5c0,0-46.2,18.3-46.2,63.4v129.8h39.6c0,0,16.6-21.1,42.8,0c0,0,25.5,28.1,60-0.6c0,0-4.5-20.4,25.5-19.1h67.6c0,0,33.2-46.6,50.4-52.3v-30.6c0,0-46.6-31-50.4-77.2c0,0-2-34.3,0-53.6c2.4-9.5,80.2-108.8,151.9,0.6c10.8,21.1,3,63.9,0,70.2c-3,6.3-15.3,35.1-40.8,61.3v31.3c0,0,44.7,35.7,51.7,49.8l74,0.6c0,0,28.7,12.8,30,29.4l38.5,0.2c0,0,18.9-37.9,52.1-9.1l40.2-0.6l0-130.2c0,0-27.4-55.5-45.3-62.5l-58.7-1.3c0,0-40.8-30,1.9-51.7c0,0,27.4-16,53,24.9c0,0,105.7,65.1,121,244.6c0,0,11.9,29.8-97,68.9L744,666c0,0-76.6,60.4-97,124.2l-4,162.1H362.4z"/><path d="M515.1,561.9"/></g>
</svg>